# xmcd
#
# Track frame offsets: 
#        150
#        31084
#        64584
#        92362
#        126174
#        154088
#        182829
#        210457
#        238373
#        277376
#        308970
#
# Disc length: 4436 seconds
#
# Revision: 0
# Processed by: cddbd v1.5.2PL0 Copyright (c) Steve Scherf et al.
# Submitted via: ExactAudioCopy v0.95b4
#
DISCID=9911520b
DTITLE=Various Artist - Serious Beats 61 [CD2)
DYEAR=2009
DGENRE=Blues
TTITLE0=Steve Angello and AN21 - Valodja
TTITLE1=David Guetta - Grrrr
TTITLE2=Hugg and Pepp ft. Robert Manos - Sweet Rosie (Tocadisco remix)
TTITLE3=Inpetto - The Milky Way
TTITLE4=FMZ - Nomansland
TTITLE5=Spencer and Hill - Cool (Afrojack remix)
TTITLE6=Black Legend - You See The Trouble With Me (Alex Kenji remix)
TTITLE7=Steffano Azati - Horns
TTITLE8=Spit - Your Freedom (Daddy's Groove Magic Island Club Mix)
TTITLE9=Dim Chris ft. Angie - Love Can't Get U Wrong
TTITLE10=Laurent Wery - Nagasaki
EXTD=
EXTT0=
EXTT1=
EXTT2=
EXTT3=
EXTT4=
EXTT5=
EXTT6=
EXTT7=
EXTT8=
EXTT9=
EXTT10=
PLAYORDER=
